<svg version="1.1" xmlns="http://www.w3.org/2000/svg" viewBox="0 0 418.0147906116903 296.0738845221558" width="418.0147906116903" height="296.0738845221558" filter="invert(93%) hue-rotate(180deg)"><!-- svg-source:excalidraw --><metadata></metadata><defs><style class="style-fonts">
      </style></defs><g stroke-linecap="round" transform="translate(22.27320492561057 30.73714229121549) rotate(6.617262584536394 186.73419038023457 117.29979996986248)"><path d="M32 0 C123.34 -2.07, 210.44 -3.77, 341.47 0 M32 0 C125.24 2.75, 217.99 1.59, 341.47 0 M341.47 0 C362.56 3.87, 376.04 14.63, 373.47 32 M341.47 0 C364.25 -1.99, 375.28 10.28, 373.47 32 M373.47 32 C370.88 93.15, 373.2 155.6, 373.47 202.6 M373.47 32 C372.08 82.98, 371.07 134.89, 373.47 202.6 M373.47 202.6 C373.03 227.07, 362.15 235.73, 341.47 234.6 M373.47 202.6 C374.99 225.15, 364.37 234.95, 341.47 234.6 M341.47 234.6 C238.92 231.74, 133.03 235.82, 32 234.6 M341.47 234.6 C225.8 234.5, 109.91 234.14, 32 234.6 M32 234.6 C10.8 237.26, 1.79 220.43, 0 202.6 M32 234.6 C6.46 230.56, -2.32 224.27, 0 202.6 M0 202.6 C-1.7 155.69, -0.95 99.57, 0 32 M0 202.6 C1.88 162.81, 2.03 120.75, 0 32 M0 32 C0.91 13.1, 9.81 1.88, 32 0 M0 32 C-4.51 7.75, 6.67 3.31, 32 0" stroke="#000000" stroke-width="2" fill="none"></path></g></svg>