<svg version="1.1" xmlns="http://www.w3.org/2000/svg" viewBox="0 0 49.13511388546692 27.386366900540906" width="49.13511388546692" height="27.386366900540906" filter="invert(93%) hue-rotate(180deg)"><!-- svg-source:excalidraw --><metadata></metadata><defs><style class="style-fonts">
      </style></defs><g transform="translate(10 14.92424460036068) rotate(0 14.56755694273346 -1.2310611500902269)" stroke="none"><path fill="#000000" d="M -1.86,-1.86 Q -1.86,-1.86 -1.18,-2.59 -0.49,-3.32 0.42,-4.17 1.35,-5.02 3.06,-5.73 4.77,-6.45 6.07,-7.06 7.36,-7.67 8.56,-7.90 9.75,-8.12 10.82,-8.17 11.88,-8.22 13.28,-7.80 14.68,-7.37 15.51,-6.50 16.34,-5.62 16.80,-4.62 17.25,-3.61 17.67,-2.58 18.10,-1.55 20.05,-2.53 22.01,-3.52 23.15,-4.18 24.28,-4.84 26.41,-5.40 28.54,-5.97 29.12,-5.94 29.69,-5.92 30.23,-5.72 30.76,-5.51 31.21,-5.14 31.65,-4.78 31.96,-4.29 32.26,-3.80 32.39,-3.24 32.52,-2.68 32.47,-2.11 32.41,-1.53 32.18,-1.01 31.94,-0.48 31.55,-0.06 31.17,0.35 30.66,0.63 30.16,0.91 29.59,1.01 29.02,1.11 28.45,1.02 27.89,0.94 27.37,0.67 26.86,0.41 26.46,0.00 26.06,-0.40 25.81,-0.92 25.56,-1.44 25.49,-2.01 25.42,-2.58 25.54,-3.15 25.65,-3.71 25.94,-4.21 26.23,-4.70 26.67,-5.08 27.10,-5.46 27.63,-5.68 28.16,-5.90 28.74,-5.94 29.31,-5.98 29.87,-5.83 30.42,-5.69 30.90,-5.37 31.38,-5.05 31.74,-4.60 32.09,-4.15 32.28,-3.60 32.48,-3.06 32.48,-2.49 32.49,-1.91 32.31,-1.36 32.14,-0.82 31.80,-0.35 31.45,0.10 30.98,0.43 30.51,0.76 29.96,0.92 29.41,1.08 29.41,1.08 29.41,1.08 28.04,1.46 26.66,1.83 25.04,2.85 23.42,3.86 22.41,4.52 21.39,5.17 19.63,5.54 17.88,5.90 16.44,5.38 14.99,4.85 14.07,3.88 13.16,2.91 12.48,2.05 11.80,1.19 11.22,-0.23 10.63,-1.66 9.53,-1.62 8.43,-1.58 6.93,-1.14 5.42,-0.70 4.37,-0.10 3.32,0.49 2.59,1.18 1.86,1.86 1.61,2.06 1.36,2.26 1.07,2.39 0.78,2.52 0.47,2.58 0.15,2.63 -0.15,2.62 -0.47,2.60 -0.78,2.50 -1.08,2.41 -1.35,2.24 -1.63,2.08 -1.85,1.85 -2.08,1.63 -2.24,1.35 -2.41,1.08 -2.50,0.78 -2.60,0.47 -2.62,0.15 -2.63,-0.15 -2.58,-0.47 -2.52,-0.78 -2.39,-1.07 -2.26,-1.36 -2.06,-1.61 -1.86,-1.87 -1.86,-1.86 L -1.86,-1.86 Z"></path></g></svg>