<?xml version="1.0" standalone="no"?>
<!DOCTYPE svg PUBLIC "-//W3C//DTD SVG 20010904//EN"
 "http://www.w3.org/TR/2001/REC-SVG-20010904/DTD/svg10.dtd">
<svg version="1.0" xmlns="http://www.w3.org/2000/svg"
 width="512.000000pt" height="512.000000pt" viewBox="0 0 512.000000 512.000000"
 preserveAspectRatio="xMidYMid meet">

<g transform="translate(0.000000,512.000000) scale(0.100000,-0.100000)"
fill="#000000" stroke="none">
<path d="M1390 4288 c-57 -39 -75 -72 -75 -137 0 -76 33 -122 105 -148 l50
-18 0 -172 0 -173 -644 -2 c-636 -3 -645 -3 -673 -24 -97 -72 -98 -195 -1
-267 17 -12 49 -22 83 -25 l55 -4 0 -1093 0 -1092 -57 -6 c-63 -7 -96 -26
-130 -77 -47 -68 -19 -176 57 -219 l38 -21 2362 0 2362 0 38 21 c76 43 104
151 58 219 -35 51 -68 70 -131 77 l-57 6 0 1092 0 1093 55 4 c161 13 212 196
82 292 -28 21 -37 21 -673 24 l-644 2 0 173 0 173 43 11 c142 39 164 234 33
297 -31 14 -141 16 -1169 16 l-1134 0 -33 -22z m2284 -88 c34 -12 44 -54 21
-80 -18 -20 -38 -20 -1135 -20 -855 0 -1119 3 -1128 12 -20 20 -14 65 10 82
20 14 142 16 1115 16 677 0 1101 -4 1117 -10z m-134 -1535 l0 -1325 -50 0 -49
0 -3 419 c-3 406 -4 420 -24 448 -11 15 -36 36 -55 45 -31 17 -90 18 -797 18
-846 0 -812 3 -853 -64 -18 -29 -19 -58 -19 -448 l0 -418 -55 0 -55 0 0 1325
0 1325 980 0 980 0 0 -1325z m-2070 815 l0 -50 -630 0 -630 0 -16 25 c-15 23
-15 27 0 50 l16 25 630 0 630 0 0 -50z m3448 38 c15 -15 15 -61 0 -76 -9 -9
-165 -12 -640 -12 l-628 0 0 50 0 50 628 0 c475 0 631 -3 640 -12z m-3448
-1188 l0 -990 -535 0 -535 0 0 990 0 990 535 0 535 0 0 -990z m3250 0 l0 -990
-535 0 -535 0 0 990 0 990 535 0 535 0 0 -990z m-1392 -581 l2 -406 -41 -18
c-58 -27 -89 -76 -89 -142 l0 -53 -99 0 -100 0 -3 398 c-3 436 -2 428 -65 469
-25 16 -59 18 -368 18 -320 0 -342 -1 -372 -20 -62 -37 -63 -42 -63 -474 l0
-391 -95 0 -95 0 0 48 c0 27 -8 62 -19 82 -18 35 -81 80 -113 80 -17 0 -18 26
-18 398 0 297 3 401 12 410 9 9 188 12 768 10 l755 -3 3 -406z m-818 -229 l0
-390 -135 0 -135 0 0 383 c0 211 3 387 7 390 3 4 64 7 135 7 l128 0 0 -390z
m378 -2 l2 -388 -140 0 -140 0 0 390 0 391 138 -3 137 -3 3 -387z m-1561 -333
l0 -55 -463 0 -464 0 0 55 0 55 464 0 463 0 0 -55z m476 46 c33 -13 43 -46 23
-76 -16 -25 -17 -25 -191 -25 -147 0 -176 2 -190 16 -23 23 -15 66 15 81 30
15 306 18 343 4z m1871 -1 c34 -12 44 -54 21 -80 -17 -18 -32 -20 -191 -20
-144 0 -175 3 -188 16 -27 27 -14 73 24 87 27 10 308 7 334 -3z m1046 -50 l0
-50 -454 0 -454 0 0 50 0 50 454 0 454 0 0 -50z m206 -185 c15 -23 15 -27 0
-50 l-16 -25 -2350 0 -2350 0 -16 25 c-15 23 -15 27 0 50 l16 25 2350 0 2350
0 16 -25z"/>
<path d="M1844 3831 c-23 -10 -52 -34 -65 -52 -24 -33 -24 -38 -24 -246 0
-236 1 -240 75 -290 l33 -23 696 0 c777 0 740 -3 789 70 23 34 23 39 20 250
-3 237 -5 245 -73 287 -28 17 -71 18 -720 20 -656 3 -692 2 -731 -16z m286
-296 l0 -205 -123 0 c-82 0 -127 4 -135 12 -8 8 -12 66 -12 193 0 127 4 185
12 193 8 8 53 12 135 12 l123 0 0 -205z m380 0 l0 -205 -135 0 -135 0 0 205 0
205 135 0 135 0 0 -205z m380 0 l0 -205 -135 0 -135 0 0 205 0 205 135 0 135
0 0 -205z m362 188 c16 -14 18 -34 18 -188 0 -132 -3 -176 -14 -191 -13 -17
-29 -19 -135 -22 l-121 -4 0 211 0 211 117 0 c94 0 120 -3 135 -17z"/>
<path d="M2210 3031 c-19 -10 -45 -36 -58 -57 -21 -38 -22 -47 -20 -244 3
-196 4 -206 26 -238 47 -65 56 -67 372 -70 157 -2 304 0 328 3 30 4 56 18 82
41 54 49 63 98 59 304 -4 184 -13 213 -79 257 -32 23 -37 23 -354 23 -294 0
-324 -2 -356 -19z m300 -291 l0 -210 -116 0 c-63 0 -124 5 -135 10 -18 10 -19
23 -19 200 0 169 2 190 18 199 9 6 70 11 135 11 l117 0 0 -210z m358 194 c21
-15 22 -21 22 -191 0 -225 8 -213 -152 -213 l-118 0 0 210 0 210 113 0 c86 0
118 -4 135 -16z"/>
<path d="M580 3188 c-74 -50 -75 -56 -75 -286 0 -232 3 -245 73 -292 l36 -25
320 0 c306 0 323 1 356 21 19 11 45 38 57 60 21 37 23 51 23 230 0 179 -1 193
-23 234 -42 79 -46 80 -413 80 -316 0 -322 0 -354 -22z m300 -288 l0 -210
-117 0 c-162 0 -153 -12 -153 211 0 220 -8 209 157 209 l113 0 0 -210z m358
194 c21 -15 22 -20 22 -199 0 -172 -1 -185 -19 -195 -11 -5 -72 -10 -135 -10
l-116 0 0 210 0 210 113 0 c86 0 118 -4 135 -16z"/>
<path d="M590 2258 c-79 -41 -85 -61 -85 -293 0 -182 2 -203 20 -234 11 -19
33 -43 48 -55 27 -20 41 -21 356 -24 326 -3 327 -3 361 20 73 50 75 57 78 278
4 225 -2 249 -64 296 l-37 29 -316 3 c-312 3 -317 2 -361 -20z m290 -293 l0
-205 -123 0 c-82 0 -127 4 -135 12 -8 8 -12 65 -12 189 0 148 3 180 16 193 12
13 40 16 135 16 l119 0 0 -205z m368 193 c17 -17 17 -369 0 -386 -8 -8 -53
-12 -135 -12 l-123 0 0 205 0 205 123 0 c82 0 127 -4 135 -12z"/>
<path d="M3812 3190 c-67 -41 -72 -61 -72 -291 0 -197 1 -207 23 -239 12 -19
38 -43 57 -54 33 -20 50 -21 350 -21 297 0 317 1 349 20 19 11 43 33 55 48 20
27 21 40 21 245 0 213 0 218 -24 251 -42 59 -56 61 -408 61 -300 0 -320 -1
-351 -20z m303 -290 l0 -205 -119 -3 c-164 -4 -156 -15 -156 205 0 223 -6 215
158 211 l117 -3 0 -205z m356 200 c18 -10 19 -23 19 -198 0 -133 -4 -192 -12
-200 -8 -8 -53 -12 -135 -12 l-123 0 0 203 c0 112 3 207 7 210 10 11 223 8
244 -3z"/>
<path d="M3821 2258 c-76 -40 -81 -60 -81 -299 0 -197 1 -207 23 -239 46 -68
56 -70 405 -70 302 0 316 1 352 21 21 12 47 39 59 60 21 37 22 49 19 243 -3
224 -5 230 -72 280 -26 20 -42 21 -344 24 -315 3 -317 3 -361 -20z m299 -293
l0 -205 -130 0 c-118 0 -130 2 -140 19 -6 11 -10 91 -10 187 0 215 -8 204 157
204 l123 0 0 -205z m359 191 c8 -9 11 -72 9 -202 l-3 -189 -132 -3 -133 -3 0
206 0 205 124 0 c93 0 126 -3 135 -14z"/>
</g>
</svg>
