<?xml version="1.0" encoding="UTF-8"?>
<!DOCTYPE svg PUBLIC "-//W3C//DTD SVG 1.1//EN" "http://www.w3.org/Graphics/SVG/1.1/DTD/svg11.dtd">
<svg xmlns="http://www.w3.org/2000/svg" version="1.1" width="512px" height="512px" style="shape-rendering:geometricPrecision; text-rendering:geometricPrecision; image-rendering:optimizeQuality; fill-rule:evenodd; clip-rule:evenodd" xmlns:xlink="http://www.w3.org/1999/xlink">
<g><path style="opacity:0.939" fill="#000000" d="M 511.5,255.5 C 511.5,258.167 511.5,260.833 511.5,263.5C 509.99,264.836 508.323,266.003 506.5,267C 500.175,267.5 493.842,267.666 487.5,267.5C 487.5,336.833 487.5,406.167 487.5,475.5C 494.574,475.161 501.574,475.661 508.5,477C 509.636,478.145 510.636,479.312 511.5,480.5C 511.5,482.833 511.5,485.167 511.5,487.5C 510.684,489.144 509.35,490.31 507.5,491C 339.5,491.667 171.5,491.667 3.5,491C 1.64977,490.31 0.316435,489.144 -0.5,487.5C -0.5,485.167 -0.5,482.833 -0.5,480.5C 0.873632,477.645 3.20697,476.145 6.5,476C 12.1569,475.501 17.8236,475.334 23.5,475.5C 23.5,406.167 23.5,336.833 23.5,267.5C 17.1579,267.666 10.8246,267.5 4.5,267C 2.67694,266.003 1.01027,264.836 -0.5,263.5C -0.5,260.833 -0.5,258.167 -0.5,255.5C 18.1369,226.674 36.6369,197.674 55,168.5C 56.5429,166.622 58.3762,165.122 60.5,164C 111.167,163.667 161.833,163.333 212.5,163C 224,151.5 235.5,140 247,128.5C 247.333,93.8333 247.667,59.1667 248,24.5C 250.435,19.7762 254.269,18.2762 259.5,20C 261.049,21.214 262.215,22.714 263,24.5C 263.499,28.1516 263.665,31.8183 263.5,35.5C 288.836,35.3334 314.169,35.5 339.5,36C 343.749,39.3766 344.582,43.5433 342,48.5C 337.833,54.6667 333.667,60.8333 329.5,67C 334.124,73.7477 338.624,80.581 343,87.5C 344.098,91.5052 343.265,95.0052 340.5,98C 314.898,99.4724 289.231,99.9724 263.5,99.5C 263.334,109.172 263.5,118.839 264,128.5C 275.5,140 287,151.5 298.5,163C 349.916,163.009 401.25,163.676 452.5,165C 453.667,166.167 454.833,167.333 456,168.5C 474.363,197.674 492.863,226.674 511.5,255.5 Z M 263.5,51.5 C 282.179,51.1671 300.845,51.5004 319.5,52.5C 316.168,56.9902 313.502,61.8235 311.5,67C 313.713,72.7581 316.713,78.0914 320.5,83C 301.503,83.4999 282.503,83.6666 263.5,83.5C 263.5,72.8333 263.5,62.1667 263.5,51.5 Z M 254.5,143.5 C 296.25,183.749 337.583,224.582 378.5,266C 409.412,267.485 440.412,267.985 471.5,267.5C 471.5,336.833 471.5,406.167 471.5,475.5C 418.167,475.5 364.833,475.5 311.5,475.5C 311.667,439.165 311.5,402.832 311,366.5C 308.687,358.184 303.52,352.351 295.5,349C 282.211,347.881 268.878,347.381 255.5,347.5C 242.122,347.381 228.789,347.881 215.5,349C 207.48,352.351 202.313,358.184 200,366.5C 199.5,402.832 199.333,439.165 199.5,475.5C 146.167,475.5 92.8333,475.5 39.5,475.5C 39.5,406.167 39.5,336.833 39.5,267.5C 70.5875,267.985 101.588,267.485 132.5,266C 173.368,225.299 214.035,184.465 254.5,143.5 Z M 67.5,179.5 C 110.168,179.333 152.835,179.5 195.5,180C 171.833,203.667 148.167,227.333 124.5,251C 90.4951,251.833 56.4951,251.667 22.5,250.5C 37.7606,226.974 52.7606,203.308 67.5,179.5 Z M 315.5,180.5 C 357.998,179.335 400.665,179.169 443.5,180C 458.375,203.585 473.375,227.085 488.5,250.5C 454.505,251.667 420.505,251.833 386.5,251C 362.965,227.298 339.299,203.798 315.5,180.5 Z M 250.5,227.5 C 280.46,228.292 295.293,243.625 295,273.5C 288.898,296.931 273.731,308.097 249.5,307C 231.009,303.176 219.842,292.009 216,273.5C 214.358,256.956 220.191,243.789 233.5,234C 239.02,231.11 244.686,228.943 250.5,227.5 Z M 71.5,307.5 C 79.5,307.5 87.5,307.5 95.5,307.5C 95.5,312.833 95.5,318.167 95.5,323.5C 87.5,323.5 79.5,323.5 71.5,323.5C 71.5,318.167 71.5,312.833 71.5,307.5 Z M 143.5,307.5 C 151.5,307.5 159.5,307.5 167.5,307.5C 167.5,312.833 167.5,318.167 167.5,323.5C 159.5,323.5 151.5,323.5 143.5,323.5C 143.5,318.167 143.5,312.833 143.5,307.5 Z M 343.5,307.5 C 351.5,307.5 359.5,307.5 367.5,307.5C 367.5,312.833 367.5,318.167 367.5,323.5C 359.5,323.5 351.5,323.5 343.5,323.5C 343.5,318.167 343.5,312.833 343.5,307.5 Z M 415.5,307.5 C 423.5,307.5 431.5,307.5 439.5,307.5C 439.5,312.833 439.5,318.167 439.5,323.5C 431.5,323.5 423.5,323.5 415.5,323.5C 415.5,318.167 415.5,312.833 415.5,307.5 Z M 71.5,339.5 C 79.5,339.5 87.5,339.5 95.5,339.5C 95.5,342.167 95.5,344.833 95.5,347.5C 87.5,347.5 79.5,347.5 71.5,347.5C 71.5,344.833 71.5,342.167 71.5,339.5 Z M 143.5,339.5 C 151.5,339.5 159.5,339.5 167.5,339.5C 167.5,342.167 167.5,344.833 167.5,347.5C 159.5,347.5 151.5,347.5 143.5,347.5C 143.5,344.833 143.5,342.167 143.5,339.5 Z M 343.5,339.5 C 351.5,339.5 359.5,339.5 367.5,339.5C 367.5,342.167 367.5,344.833 367.5,347.5C 359.5,347.5 351.5,347.5 343.5,347.5C 343.5,344.833 343.5,342.167 343.5,339.5 Z M 415.5,339.5 C 423.5,339.5 431.5,339.5 439.5,339.5C 439.5,342.167 439.5,344.833 439.5,347.5C 431.5,347.5 423.5,347.5 415.5,347.5C 415.5,344.833 415.5,342.167 415.5,339.5 Z M 222.5,363.5 C 244.503,363.333 266.503,363.5 288.5,364C 291.573,364.739 293.74,366.572 295,369.5C 295.498,372.817 295.665,376.15 295.5,379.5C 268.833,379.5 242.167,379.5 215.5,379.5C 213.712,372.076 216.046,366.742 222.5,363.5 Z M 215.5,395.5 C 226.167,395.5 236.833,395.5 247.5,395.5C 247.5,422.167 247.5,448.833 247.5,475.5C 236.833,475.5 226.167,475.5 215.5,475.5C 215.5,448.833 215.5,422.167 215.5,395.5 Z M 263.5,395.5 C 274.167,395.5 284.833,395.5 295.5,395.5C 295.5,422.167 295.5,448.833 295.5,475.5C 284.833,475.5 274.167,475.5 263.5,475.5C 263.5,448.833 263.5,422.167 263.5,395.5 Z M 71.5,403.5 C 79.5,403.5 87.5,403.5 95.5,403.5C 95.5,406.167 95.5,408.833 95.5,411.5C 87.5,411.5 79.5,411.5 71.5,411.5C 71.5,408.833 71.5,406.167 71.5,403.5 Z M 143.5,403.5 C 151.5,403.5 159.5,403.5 167.5,403.5C 167.5,406.167 167.5,408.833 167.5,411.5C 159.5,411.5 151.5,411.5 143.5,411.5C 143.5,408.833 143.5,406.167 143.5,403.5 Z M 343.5,403.5 C 351.5,403.5 359.5,403.5 367.5,403.5C 367.5,406.167 367.5,408.833 367.5,411.5C 359.5,411.5 351.5,411.5 343.5,411.5C 343.5,408.833 343.5,406.167 343.5,403.5 Z M 415.5,403.5 C 423.5,403.5 431.5,403.5 439.5,403.5C 439.5,406.167 439.5,408.833 439.5,411.5C 431.5,411.5 423.5,411.5 415.5,411.5C 415.5,408.833 415.5,406.167 415.5,403.5 Z M 71.5,427.5 C 79.5,427.5 87.5,427.5 95.5,427.5C 95.5,430.167 95.5,432.833 95.5,435.5C 87.5,435.5 79.5,435.5 71.5,435.5C 71.5,432.833 71.5,430.167 71.5,427.5 Z M 143.5,427.5 C 151.5,427.5 159.5,427.5 167.5,427.5C 167.5,430.167 167.5,432.833 167.5,435.5C 159.5,435.5 151.5,435.5 143.5,435.5C 143.5,432.833 143.5,430.167 143.5,427.5 Z M 343.5,427.5 C 351.5,427.5 359.5,427.5 367.5,427.5C 367.5,430.167 367.5,432.833 367.5,435.5C 359.5,435.5 351.5,435.5 343.5,435.5C 343.5,432.833 343.5,430.167 343.5,427.5 Z M 415.5,427.5 C 423.5,427.5 431.5,427.5 439.5,427.5C 439.5,430.167 439.5,432.833 439.5,435.5C 431.5,435.5 423.5,435.5 415.5,435.5C 415.5,432.833 415.5,430.167 415.5,427.5 Z"/></g>
<g><path style="opacity:0.926" fill="#000000" d="M 247.5,211.5 C 272.781,209.39 291.947,219.056 305,240.5C 317.46,269.489 311.627,293.989 287.5,314C 266.167,326.667 244.833,326.667 223.5,314C 203.858,298.864 196.358,279.031 201,254.5C 207.752,230.577 223.252,216.244 247.5,211.5 Z M 250.5,227.5 C 244.686,228.943 239.02,231.11 233.5,234C 220.191,243.789 214.358,256.956 216,273.5C 219.842,292.009 231.009,303.176 249.5,307C 273.731,308.097 288.898,296.931 295,273.5C 295.293,243.625 280.46,228.292 250.5,227.5 Z"/></g>
<g><path style="opacity:0.915" fill="#000000" d="M 252.5,235.5 C 257.28,234.641 260.78,236.308 263,240.5C 263.952,251.265 263.619,261.932 262,272.5C 261.097,273.701 259.931,274.535 258.5,275C 248.5,275.667 238.5,275.667 228.5,275C 224.139,272.774 222.639,269.274 224,264.5C 224.833,262.333 226.333,260.833 228.5,260C 234.825,259.5 241.158,259.334 247.5,259.5C 247.334,253.158 247.5,246.825 248,240.5C 249.025,238.313 250.525,236.646 252.5,235.5 Z"/></g>
<g><path style="opacity:0.944" fill="#000000" d="M 63.5,291.5 C 76.8375,291.333 90.1708,291.5 103.5,292C 107.77,293.27 110.27,296.104 111,300.5C 111.667,319.5 111.667,338.5 111,357.5C 110.293,359.081 109.46,360.581 108.5,362C 92.2586,363.636 75.9253,363.97 59.5,363C 58.3333,361.833 57.1667,360.667 56,359.5C 55.3333,338.833 55.3333,318.167 56,297.5C 57.7074,294.41 60.2074,292.41 63.5,291.5 Z M 71.5,307.5 C 71.5,312.833 71.5,318.167 71.5,323.5C 79.5,323.5 87.5,323.5 95.5,323.5C 95.5,318.167 95.5,312.833 95.5,307.5C 87.5,307.5 79.5,307.5 71.5,307.5 Z M 71.5,339.5 C 71.5,342.167 71.5,344.833 71.5,347.5C 79.5,347.5 87.5,347.5 95.5,347.5C 95.5,344.833 95.5,342.167 95.5,339.5C 87.5,339.5 79.5,339.5 71.5,339.5 Z"/></g>
<g><path style="opacity:0.944" fill="#000000" d="M 135.5,291.5 C 148.837,291.333 162.171,291.5 175.5,292C 178.196,292.69 180.363,294.19 182,296.5C 183.619,316.782 183.952,337.115 183,357.5C 182.727,359.329 181.893,360.829 180.5,362C 164.259,363.636 147.925,363.97 131.5,363C 130.333,361.833 129.167,360.667 128,359.5C 127.333,339.167 127.333,318.833 128,298.5C 129.632,295.123 132.132,292.79 135.5,291.5 Z M 143.5,307.5 C 143.5,312.833 143.5,318.167 143.5,323.5C 151.5,323.5 159.5,323.5 167.5,323.5C 167.5,318.167 167.5,312.833 167.5,307.5C 159.5,307.5 151.5,307.5 143.5,307.5 Z M 143.5,339.5 C 143.5,342.167 143.5,344.833 143.5,347.5C 151.5,347.5 159.5,347.5 167.5,347.5C 167.5,344.833 167.5,342.167 167.5,339.5C 159.5,339.5 151.5,339.5 143.5,339.5 Z"/></g>
<g><path style="opacity:0.944" fill="#000000" d="M 335.5,291.5 C 348.837,291.333 362.171,291.5 375.5,292C 379.112,292.889 381.612,295.055 383,298.5C 383.667,318.833 383.667,339.167 383,359.5C 381.833,360.667 380.667,361.833 379.5,363C 363.833,363.667 348.167,363.667 332.5,363C 331.069,362.535 329.903,361.701 329,360.5C 327.37,340.565 327.036,320.565 328,300.5C 328.913,296.094 331.413,293.094 335.5,291.5 Z M 343.5,307.5 C 343.5,312.833 343.5,318.167 343.5,323.5C 351.5,323.5 359.5,323.5 367.5,323.5C 367.5,318.167 367.5,312.833 367.5,307.5C 359.5,307.5 351.5,307.5 343.5,307.5 Z M 343.5,339.5 C 343.5,342.167 343.5,344.833 343.5,347.5C 351.5,347.5 359.5,347.5 367.5,347.5C 367.5,344.833 367.5,342.167 367.5,339.5C 359.5,339.5 351.5,339.5 343.5,339.5 Z"/></g>
<g><path style="opacity:0.944" fill="#000000" d="M 407.5,291.5 C 420.837,291.333 434.171,291.5 447.5,292C 451.02,292.504 453.52,294.337 455,297.5C 455.667,318.167 455.667,338.833 455,359.5C 453.833,360.667 452.667,361.833 451.5,363C 435.833,363.667 420.167,363.667 404.5,363C 402.185,361.891 400.685,360.057 400,357.5C 399.333,338.5 399.333,319.5 400,300.5C 400.923,296.086 403.423,293.086 407.5,291.5 Z M 415.5,307.5 C 415.5,312.833 415.5,318.167 415.5,323.5C 423.5,323.5 431.5,323.5 439.5,323.5C 439.5,318.167 439.5,312.833 439.5,307.5C 431.5,307.5 423.5,307.5 415.5,307.5 Z M 415.5,339.5 C 415.5,342.167 415.5,344.833 415.5,347.5C 423.5,347.5 431.5,347.5 439.5,347.5C 439.5,344.833 439.5,342.167 439.5,339.5C 431.5,339.5 423.5,339.5 415.5,339.5 Z"/></g>
<g><path style="opacity:0.945" fill="#000000" d="M 61.5,387.5 C 75.8372,387.333 90.1705,387.5 104.5,388C 106.848,388.346 108.681,389.513 110,391.5C 111.626,409.434 111.959,427.434 111,445.5C 110.727,447.329 109.893,448.829 108.5,450C 100.097,451.138 91.5975,451.638 83,451.5C 75.1667,451.333 67.3333,451.167 59.5,451C 58.5838,450.626 57.7504,450.126 57,449.5C 55.3588,430.257 55.0255,410.923 56,391.5C 57.4998,389.531 59.3331,388.198 61.5,387.5 Z M 71.5,403.5 C 71.5,406.167 71.5,408.833 71.5,411.5C 79.5,411.5 87.5,411.5 95.5,411.5C 95.5,408.833 95.5,406.167 95.5,403.5C 87.5,403.5 79.5,403.5 71.5,403.5 Z M 71.5,427.5 C 71.5,430.167 71.5,432.833 71.5,435.5C 79.5,435.5 87.5,435.5 95.5,435.5C 95.5,432.833 95.5,430.167 95.5,427.5C 87.5,427.5 79.5,427.5 71.5,427.5 Z"/></g>
<g><path style="opacity:0.945" fill="#000000" d="M 133.5,387.5 C 147.837,387.333 162.171,387.5 176.5,388C 179.893,388.394 182.06,390.227 183,393.5C 183.667,410.833 183.667,428.167 183,445.5C 182.654,447.848 181.487,449.681 179.5,451C 163.5,451.667 147.5,451.667 131.5,451C 130.333,449.833 129.167,448.667 128,447.5C 127.333,429.167 127.333,410.833 128,392.5C 129.107,389.887 130.94,388.22 133.5,387.5 Z M 143.5,403.5 C 143.5,406.167 143.5,408.833 143.5,411.5C 151.5,411.5 159.5,411.5 167.5,411.5C 167.5,408.833 167.5,406.167 167.5,403.5C 159.5,403.5 151.5,403.5 143.5,403.5 Z M 143.5,427.5 C 143.5,430.167 143.5,432.833 143.5,435.5C 151.5,435.5 159.5,435.5 167.5,435.5C 167.5,432.833 167.5,430.167 167.5,427.5C 159.5,427.5 151.5,427.5 143.5,427.5 Z"/></g>
<g><path style="opacity:0.945" fill="#000000" d="M 334.5,387.5 C 348.837,387.333 363.171,387.5 377.5,388C 379.329,388.273 380.829,389.107 382,390.5C 383.641,409.41 383.974,428.41 383,447.5C 381.833,448.667 380.667,449.833 379.5,451C 363.5,451.667 347.5,451.667 331.5,451C 330.667,450.167 329.833,449.333 329,448.5C 327.373,430.232 327.04,411.899 328,393.5C 329.113,390.219 331.28,388.219 334.5,387.5 Z M 343.5,403.5 C 343.5,406.167 343.5,408.833 343.5,411.5C 351.5,411.5 359.5,411.5 367.5,411.5C 367.5,408.833 367.5,406.167 367.5,403.5C 359.5,403.5 351.5,403.5 343.5,403.5 Z M 343.5,427.5 C 343.5,430.167 343.5,432.833 343.5,435.5C 351.5,435.5 359.5,435.5 367.5,435.5C 367.5,432.833 367.5,430.167 367.5,427.5C 359.5,427.5 351.5,427.5 343.5,427.5 Z"/></g>
<g><path style="opacity:0.945" fill="#000000" d="M 406.5,387.5 C 420.837,387.333 435.171,387.5 449.5,388C 451.848,388.346 453.681,389.513 455,391.5C 455.667,410.167 455.667,428.833 455,447.5C 454.626,448.416 454.126,449.25 453.5,450C 437.259,451.636 420.925,451.97 404.5,451C 403.069,450.535 401.903,449.701 401,448.5C 399.374,430.566 399.041,412.566 400,394.5C 401.018,390.985 403.185,388.652 406.5,387.5 Z M 415.5,403.5 C 415.5,406.167 415.5,408.833 415.5,411.5C 423.5,411.5 431.5,411.5 439.5,411.5C 439.5,408.833 439.5,406.167 439.5,403.5C 431.5,403.5 423.5,403.5 415.5,403.5 Z M 415.5,427.5 C 415.5,430.167 415.5,432.833 415.5,435.5C 423.5,435.5 431.5,435.5 439.5,435.5C 439.5,432.833 439.5,430.167 439.5,427.5C 431.5,427.5 423.5,427.5 415.5,427.5 Z"/></g>
</svg>
